# xmcd
#
# Track frame offsets:
#	150
#	25787
#	41774
#	61826
#	86732
#	105118
#	119919
#	134990
#	162722
#	184464
#	209677
#	238800
#	255923
#
# Disc length: 3764 seconds
#
# Revision: 1
# Processed by: cddbd v1.5.2PL0 Copyright (c) Steve Scherf et al.
# Submitted via: audiograbber 1.83.01
#
DISCID=c50eb20d
DTITLE=Ben Coulter - Wanted: Live!
DYEAR=2010
DGENRE=Country
TTITLE0=Long Black Cars and Cocaine
TTITLE1=Delta Mud
TTITLE2=Can't You See
TTITLE3=Delta Blues
TTITLE4=Feel like going home
TTITLE5=That Kind of Woman
TTITLE6=Songwriter
TTITLE7=Midnight Rider - I ain't superstitious
TTITLE8=Mississippi Woman
TTITLE9=Further Down the Road
TTITLE10=The Call me an Outlaw
TTITLE11=You don't have to remind me
TTITLE12=Roll on Train
EXTD=
EXTT0=
EXTT1=
EXTT2=
EXTT3=
EXTT4=
EXTT5=
EXTT6=
EXTT7=
EXTT8=
EXTT9=
EXTT10=
EXTT11=
EXTT12=
PLAYORDER=
